<?xml version="1.0" encoding="UTF-8"?>
<svg width="15px" height="15px" viewBox="0 0 15 15" version="1.1" xmlns="http://www.w3.org/2000/svg" xmlns:xlink="http://www.w3.org/1999/xlink">
    <!-- Generator: sketchtool 54.1 (76490) - https://sketchapp.com -->
    <title>D5ED7ECA-8B8E-40C0-B4EC-B3254A1A3F2D</title>
    <desc>Created with sketchtool.</desc>
    <g id="New-Version" stroke="none" stroke-width="1" fill="none" fill-rule="evenodd">
        <g id="Login-Options" transform="translate(-894.000000, -759.000000)" fill="#FFFFFF" fill-rule="nonzero">
            <g id="Group-8" transform="translate(503.000000, 730.000000)">
                <g id="Group-4-Copy-3" transform="translate(375.000000, 19.000000)">
                    <g id="icons8-globe_earth" transform="translate(16.000000, 9.000000)">
                        <path d="M7.5,1 C3.36425813,1 0,4.36425813 0,8.5 C0,12.6357425 3.36425813,16 7.5,16 C11.6357425,16 15,12.6357425 15,8.5 C15,4.36425813 11.6357425,1 7.5,1 Z M7.5,2.25 C7.612305,2.25 7.78320312,2.31835938 8.0078125,2.58203125 C8.23242187,2.84570312 8.46191437,3.27783187 8.671875,3.8515625 C8.76953125,4.1201175 8.86474625,4.42773438 8.9453125,4.75 L6.0546875,4.75 C6.13525375,4.42773438 6.23046875,4.1201175 6.328125,3.8515625 C6.53808625,3.27783187 6.76757812,2.84570312 6.9921875,2.58203125 C7.21679687,2.31835938 7.38769562,2.25 7.5,2.25 Z M5.5078125,2.5625 C5.3686525,2.82373062 5.24902375,3.11181625 5.13671875,3.421875 C4.99023438,3.82470687 4.87304688,4.27392563 4.765625,4.75 L2.5,4.75 C3.25195312,3.74658187 4.29443375,2.970215 5.5078125,2.5625 Z M9.4921875,2.5625 C10.7055662,2.970215 11.7480469,3.74658187 12.5,4.75 L10.234375,4.75 C10.1269531,4.27392563 10.0097656,3.82470687 9.86328125,3.421875 C9.75097687,3.11181625 9.6313475,2.82373062 9.4921875,2.5625 Z M1.7578125,6 L4.55078125,6 C4.470215,6.59326187 4.4140625,7.22314438 4.39453125,7.875 L1.2890625,7.875 C1.35253937,7.21582063 1.5063475,6.58349625 1.7578125,6 Z M5.8203125,6 L9.1796875,6 C9.26757812,6.5859375 9.331055,7.21582063 9.35546875,7.875 L5.64453125,7.875 C5.66894562,7.21582063 5.73242187,6.5859375 5.8203125,6 Z M10.4492187,6 L13.2421875,6 C13.4936525,6.58349625 13.6474612,7.21582063 13.7109375,7.875 L10.6054687,7.875 C10.5859375,7.22314438 10.529785,6.59326187 10.4492187,6 Z M1.2890625,9.125 L4.39453125,9.125 C4.4140625,9.77685562 4.470215,10.4067381 4.55078125,11 L1.7578125,11 C1.5063475,10.4165037 1.35253937,9.78418 1.2890625,9.125 Z M5.64453125,9.125 L9.35546875,9.125 C9.331055,9.78418 9.26757812,10.4140625 9.1796875,11 L5.8203125,11 C5.73242187,10.4140625 5.66894562,9.78418 5.64453125,9.125 Z M10.6054687,9.125 L13.7109375,9.125 C13.6474612,9.78418 13.4936525,10.4165037 13.2421875,11 L10.4492187,11 C10.529785,10.4067381 10.5859375,9.77685562 10.6054687,9.125 Z M2.5,12.25 L4.765625,12.25 C4.87304688,12.7260744 4.99023438,13.1752931 5.13671875,13.578125 C5.24902375,13.8881837 5.3686525,14.1762694 5.5078125,14.4375 C4.29443375,14.029785 3.25195312,13.2534181 2.5,12.25 Z M6.0546875,12.25 L8.9453125,12.25 C8.86474625,12.5722656 8.76953125,12.8798831 8.671875,13.1484375 C8.46191437,13.7221681 8.23242187,14.1542969 8.0078125,14.4179688 C7.78320312,14.6816406 7.612305,14.75 7.5,14.75 C7.38769562,14.75 7.21679687,14.6816406 6.9921875,14.4179688 C6.76757812,14.1542969 6.53808625,13.7221681 6.328125,13.1484375 C6.23046875,12.8798831 6.13525375,12.5722656 6.0546875,12.25 Z M10.234375,12.25 L12.5,12.25 C11.7480469,13.2534181 10.7055662,14.029785 9.4921875,14.4375 C9.6313475,14.1762694 9.75097687,13.8881837 9.86328125,13.578125 C10.0097656,13.1752931 10.1269531,12.7260744 10.234375,12.25 Z" id="Shape"></path>
                    </g>
                </g>
            </g>
        </g>
    </g>
</svg>