<?xml version="1.0" encoding="UTF-8"?>
<svg width="16px" height="17px" viewBox="0 0 16 17" version="1.1" xmlns="http://www.w3.org/2000/svg" xmlns:xlink="http://www.w3.org/1999/xlink">
    <!-- Generator: sketchtool 54.1 (76490) - https://sketchapp.com -->
    <title>7D0E1BA5-0F86-4036-80D6-F7A31E93A9D2</title>
    <desc>Created with sketchtool.</desc>
    <g id="New-Version" stroke="none" stroke-width="1" fill="none" fill-rule="evenodd">
        <g id="Login-Options" transform="translate(-580.000000, -523.000000)" fill="#072D4F" fill-rule="nonzero">
            <g id="icons8-globe_earth" transform="translate(580.000000, 523.000000)">
                <path d="M8,0.224561404 C3.588542,0.224561404 0,3.8131034 0,8.2245614 C0,12.6360201 3.588542,16.2245614 8,16.2245614 C12.4114587,16.2245614 16,12.6360201 16,8.2245614 C16,3.8131034 12.4114587,0.224561404 8,0.224561404 Z M8,1.55789474 C8.119792,1.55789474 8.30208333,1.6308114 8.54166667,1.9120614 C8.78125,2.1933114 9.026042,2.65424874 9.25,3.26622807 C9.35416667,3.55268674 9.45572933,3.8808114 9.54166667,4.2245614 L6.45833333,4.2245614 C6.54427067,3.8808114 6.64583333,3.55268674 6.75,3.26622807 C6.97395867,2.65424874 7.21875,2.1933114 7.45833333,1.9120614 C7.69791667,1.6308114 7.88020867,1.55789474 8,1.55789474 Z M5.875,1.89122807 C5.72656267,2.16987407 5.59895867,2.4771654 5.47916667,2.80789474 C5.32291667,3.23758207 5.19791667,3.71674874 5.08333333,4.2245614 L2.66666667,4.2245614 C3.46875,3.15424874 4.58072933,2.32612407 5.875,1.89122807 Z M10.125,1.89122807 C11.4192707,2.32612407 12.53125,3.15424874 13.3333333,4.2245614 L10.9166667,4.2245614 C10.8020833,3.71674874 10.6770833,3.23758207 10.5208333,2.80789474 C10.401042,2.4771654 10.2734373,2.16987407 10.125,1.89122807 Z M1.875,5.55789474 L4.85416667,5.55789474 C4.76822933,6.1907074 4.70833333,6.86258207 4.6875,7.55789474 L1.375,7.55789474 C1.44270867,6.85477007 1.60677067,6.18029074 1.875,5.55789474 Z M6.20833333,5.55789474 L9.79166667,5.55789474 C9.88541667,6.18289474 9.95312533,6.85477007 9.97916667,7.55789474 L6.02083333,7.55789474 C6.04687533,6.85477007 6.11458333,6.18289474 6.20833333,5.55789474 Z M11.1458333,5.55789474 L14.125,5.55789474 C14.3932293,6.18029074 14.557292,6.85477007 14.625,7.55789474 L11.3125,7.55789474 C11.2916667,6.86258207 11.2317707,6.1907074 11.1458333,5.55789474 Z M1.375,8.89122807 L4.6875,8.89122807 C4.70833333,9.58654074 4.76822933,10.2584154 4.85416667,10.8912281 L1.875,10.8912281 C1.60677067,10.2688321 1.44270867,9.5943534 1.375,8.89122807 Z M6.02083333,8.89122807 L9.97916667,8.89122807 C9.95312533,9.5943534 9.88541667,10.2662281 9.79166667,10.8912281 L6.20833333,10.8912281 C6.11458333,10.2662281 6.04687533,9.5943534 6.02083333,8.89122807 Z M11.3125,8.89122807 L14.625,8.89122807 C14.557292,9.5943534 14.3932293,10.2688321 14.125,10.8912281 L11.1458333,10.8912281 C11.2317707,10.2584154 11.2916667,9.58654074 11.3125,8.89122807 Z M2.66666667,12.2245614 L5.08333333,12.2245614 C5.19791667,12.7323741 5.32291667,13.2115407 5.47916667,13.6412281 C5.59895867,13.9719574 5.72656267,14.2792487 5.875,14.5578947 C4.58072933,14.1229987 3.46875,13.2948741 2.66666667,12.2245614 Z M6.45833333,12.2245614 L9.54166667,12.2245614 C9.45572933,12.5683114 9.35416667,12.8964367 9.25,13.1828947 C9.026042,13.7948741 8.78125,14.2558114 8.54166667,14.5370614 C8.30208333,14.8183114 8.119792,14.8912281 8,14.8912281 C7.88020867,14.8912281 7.69791667,14.8183114 7.45833333,14.5370614 C7.21875,14.2558114 6.97395867,13.7948741 6.75,13.1828947 C6.64583333,12.8964367 6.54427067,12.5683114 6.45833333,12.2245614 Z M10.9166667,12.2245614 L13.3333333,12.2245614 C12.53125,13.2948741 11.4192707,14.1229987 10.125,14.5578947 C10.2734373,14.2792487 10.401042,13.9719574 10.5208333,13.6412281 C10.6770833,13.2115407 10.8020833,12.7323741 10.9166667,12.2245614 Z" id="Shape"></path>
            </g>
        </g>
    </g>
</svg>