<?xml version="1.0" encoding="UTF-8"?>
<svg width="16px" height="12px" viewBox="0 0 16 12" version="1.1" xmlns="http://www.w3.org/2000/svg" xmlns:xlink="http://www.w3.org/1999/xlink">
    <!-- Generator: sketchtool 54.1 (76490) - https://sketchapp.com -->
    <title>4A0182E3-52CA-4716-82DA-0AA8D7C69900</title>
    <desc>Created with sketchtool.</desc>
    <g id="New-Version" stroke="none" stroke-width="1" fill="none" fill-rule="evenodd">
        <g id="Login-Options" transform="translate(-731.000000, -760.000000)" fill="#FFFFFF" fill-rule="nonzero">
            <g id="Group-8" transform="translate(503.000000, 730.000000)">
                <g id="Group-4-Copy" transform="translate(212.000000, 19.000000)">
                    <g id="Group-6">
                        <g id="icons8-laptop" transform="translate(16.000000, 11.000000)">
                            <path d="M1.71428571,0 L1.71428571,7.75 L0.410714286,9.07142857 C0.151785714,9.33035714 0,9.6875 0,10.0535714 C0,10.808036 0.620536,11.4285714 1.375,11.4285714 L14.625,11.4285714 C15.3794646,11.4285714 16,10.808036 16,10.0535714 C16,9.6875 15.8482143,9.33035714 15.5892857,9.07142857 L14.2857143,7.75 L14.2857143,0 L1.71428571,0 Z M2.85714286,1.14285714 L13.1428571,1.14285714 L13.1428571,7.42857143 L2.85714286,7.42857143 L2.85714286,1.14285714 Z M2.53571429,8.57142857 L13.4642857,8.57142857 L14.7857143,9.875 C14.8303571,9.91964286 14.8571429,9.99107143 14.8571429,10.0535714 C14.8571429,10.1919646 14.7633931,10.2857143 14.625,10.2857143 L1.375,10.2857143 C1.23660743,10.2857143 1.14285714,10.1919646 1.14285714,10.0535714 C1.14285714,9.99107143 1.16964286,9.91964286 1.21428571,9.875 L2.53571429,8.57142857 Z" id="Shape"></path>
                        </g>
                    </g>
                </g>
            </g>
        </g>
    </g>
</svg>