<?xml version="1.0" encoding="UTF-8"?>
<svg width="14px" height="6px" viewBox="0 0 14 6" version="1.1" xmlns="http://www.w3.org/2000/svg" xmlns:xlink="http://www.w3.org/1999/xlink">
    <!-- Generator: Sketch 54.1 (76490) - https://sketchapp.com -->
    <title>icons8-approximately_equal</title>
    <desc>Created with Sketch.</desc>
    <g id="Page-1" stroke="none" stroke-width="1" fill="none" fill-rule="evenodd">
        <g id="Send" transform="translate(-69.000000, -301.000000)" fill="#9199B6" fill-rule="nonzero">
            <g id="Group-2" transform="translate(15.000000, 296.048544)">
                <g id="icons8-approximately_equal" transform="translate(54.000000, 5.000000)">
                    <path d="M9.625,0.0364583333 C8.52213542,0.0341798333 7.62207017,0.328125 6.81770833,0.619791667 C5.20898467,1.203125 3.95117217,1.75455758 0.856770833,0.0729166667 L0.309895833,1.09375 C3.64583333,2.90527358 5.61002633,2.296875 7.21875,1.71354167 C8.82747425,1.13020833 10.0830077,0.57649725 13.1432292,2.26041667 L13.6901042,1.23958333 C12.0403646,0.3304035 10.7278646,0.0387368333 9.625,0.0364583333 Z M9.625,3.53645833 C8.52213542,3.53417983 7.62207017,3.828125 6.81770833,4.11979167 C5.20898467,4.703125 3.95117217,5.25455758 0.856770833,3.57291667 L0.309895833,4.59375 C3.64583333,6.40527358 5.61002633,5.796875 7.21875,5.21354167 C8.82747425,4.63020833 10.0830077,4.07649725 13.1432292,5.76041667 L13.6901042,4.73958333 C12.0403646,3.8304035 10.7278646,3.53873683 9.625,3.53645833 Z" id="Shape"></path>
                </g>
            </g>
        </g>
    </g>
</svg>