<?xml version="1.0" encoding="UTF-8"?>
<svg width="63px" height="56px" viewBox="0 0 63 56" version="1.1" xmlns="http://www.w3.org/2000/svg" xmlns:xlink="http://www.w3.org/1999/xlink">
    <!-- Generator: sketchtool 52.3 (67297) - http://www.bohemiancoding.com/sketch -->
    <title>471EBE8A-F41D-4BD3-A2CD-9B41BE26D4EC</title>
    <desc>Created with sketchtool.</desc>
    <g id="Page-1" stroke="none" stroke-width="1" fill="none" fill-rule="evenodd">
        <g id="Error" transform="translate(-688.000000, -404.000000)" fill="#F66064" fill-rule="nonzero">
            <g id="Error---Icon---v2" transform="translate(688.000000, 404.000000)">
                <path d="M62.5266124,51.3300903 L34.1233563,1.51772064 C33.0187852,-0.50590688 29.8628679,-0.50590688 28.7582968,1.51772064 L0.355040701,51.3300903 C-0.1183469,52.2640723 -0.1183469,53.5093815 0.355040701,54.4433634 C0.98622417,55.3773454 1.93299937,56 3.03757044,56 L59.8440827,56 C60.9486537,56 62.0532248,55.3773454 62.5266124,54.4433634 C63.1577959,53.5093815 63.1577959,52.2640723 62.5266124,51.3300903 Z M31.4408265,46.6601807 C29.705072,46.6601807 28.2849092,45.2592078 28.2849092,43.5469076 C28.2849092,41.8346074 29.705072,40.4336345 31.4408265,40.4336345 C33.1765811,40.4336345 34.5967439,41.8346074 34.5967439,43.5469076 C34.5967439,45.2592078 33.1765811,46.6601807 31.4408265,46.6601807 Z M34.5967439,34.2070883 C34.5967439,35.9193885 33.1765811,37.3203614 31.4408265,37.3203614 C29.705072,37.3203614 28.2849092,35.9193885 28.2849092,34.2070883 L28.2849092,24.8672689 C28.2849092,23.1549687 29.705072,21.7539958 31.4408265,21.7539958 C33.1765811,21.7539958 34.5967439,23.1549687 34.5967439,24.8672689 L34.5967439,34.2070883 Z" id="Shape"></path>
            </g>
        </g>
    </g>
</svg>