<?xml version="1.0" encoding="UTF-8"?>
<svg width="30px" height="26px" viewBox="0 0 30 26" version="1.1" xmlns="http://www.w3.org/2000/svg" xmlns:xlink="http://www.w3.org/1999/xlink">
    <!-- Generator: Sketch 52.3 (67297) - http://www.bohemiancoding.com/sketch -->
    <title>eye-off</title>
    <desc>Created with Sketch.</desc>
    <g id="Page-1" stroke="none" stroke-width="1" fill="none" fill-rule="evenodd">
        <g id="Artboard" transform="translate(-296.000000, -236.000000)">
            <g id="eye-off" transform="translate(296.000000, 239.000000)">
                <path d="M15,0 C6.081703,0 0.32098813,9.21118 0.21679688,9.378906 C0.0765533916,9.5555626 0.000151622658,9.77444343 0,10 C0.000177403204,10.1934991 0.0564899972,10.3827909 0.16210938,10.544922 C0.16340458,10.5468796 0.164706668,10.5488326 0.16601562,10.550781 C0.18320928,10.586261 5.0188313,20 15,20 C24.938822,20 29.767326,10.678741 29.826172,10.564453 C29.8301524,10.5579874 29.8340589,10.5514766 29.837891,10.544922 C29.9435102,10.3827909 29.9998227,10.1934991 30,10 C29.9999647,9.77534582 29.9242839,9.55724758 29.785156,9.380859 C29.7845059,9.3802071 29.7838549,9.3795561 29.783203,9.378906 C29.679012,9.21118 23.918297,0 15,0 Z M15,3 C18.866,3 22,6.134 22,10 C22,13.866 18.866,17 15,17 C11.134,17 8,13.866 8,10 C8,6.134 11.134,3 15,3 Z M15,7 C13.3431458,7 12,8.34314575 12,10 C12,11.6568542 13.3431458,13 15,13 C16.6568542,13 18,11.6568542 18,10 C18,8.34314575 16.6568542,7 15,7 Z" id="Shape" fill="#9199B6" fill-rule="nonzero"></path>
                <path d="M27.5,0 L2.5,20" id="Line" stroke-opacity="0.01" stroke="#FFFFFF" stroke-width="3" stroke-linecap="square"></path>
            </g>
        </g>
    </g>
</svg>