<?xml version="1.0" encoding="UTF-8"?>
<svg width="40px" height="38px" viewBox="0 0 40 38" version="1.1" xmlns="http://www.w3.org/2000/svg" xmlns:xlink="http://www.w3.org/1999/xlink">
    <!-- Generator: sketchtool 54.1 (76490) - https://sketchapp.com -->
    <title>A077DFC8-9D06-4847-B825-9913EA4E37D0</title>
    <desc>Created with sketchtool.</desc>
    <g id="Version-3" stroke="none" stroke-width="1" fill="none" fill-rule="evenodd">
        <g id="QR-2" transform="translate(-686.000000, -232.000000)" fill="#072D4F" fill-rule="nonzero">
            <g id="icons8-monitor" transform="translate(686.000000, 232.000000)">
                <path d="M3.33333333,0 C1.49166667,0 0,1.51878788 0,3.39393939 L0,27.1515152 C0,29.0266667 1.49166667,30.5454545 3.33333333,30.5454545 L36.6666667,30.5454545 C38.5083333,30.5454545 40,29.0266667 40,27.1515152 L40,3.39393939 C40,1.51878788 38.5083333,0 36.6666667,0 L3.33333333,0 Z M3.33333333,3.39393939 L36.6666667,3.39393939 L36.6666667,23.7575758 L3.33333333,23.7575758 L3.33333333,3.39393939 Z M20,25.4545455 C20.92,25.4545455 21.6666667,26.2147879 21.6666667,27.1515152 C21.6666667,28.0882424 20.92,28.8484848 20,28.8484848 C19.08,28.8484848 18.3333333,28.0882424 18.3333333,27.1515152 C18.3333333,26.2147879 19.08,25.4545455 20,25.4545455 Z M11.6666667,33.9393939 C11.0656068,33.9307389 10.5065311,34.2522732 10.2035205,34.7808751 C9.90050987,35.309477 9.90050987,35.9632502 10.2035205,36.4918521 C10.5065311,37.020454 11.0656068,37.3419884 11.6666667,37.3333333 L28.3333333,37.3333333 C28.9343932,37.3419884 29.4934689,37.020454 29.7964795,36.4918521 C30.0994901,35.9632502 30.0994901,35.309477 29.7964795,34.7808751 C29.4934689,34.2522732 28.9343932,33.9307389 28.3333333,33.9393939 L11.6666667,33.9393939 Z" id="Shape"></path>
            </g>
        </g>
    </g>
</svg>