<?xml version="1.0" encoding="UTF-8"?>
<svg width="102px" height="102px" viewBox="0 0 102 102" version="1.1" xmlns="http://www.w3.org/2000/svg" xmlns:xlink="http://www.w3.org/1999/xlink">
    <!-- Generator: sketchtool 52.3 (67297) - http://www.bohemiancoding.com/sketch -->
    <title>0BBB9B77-D6F2-4D8C-8305-40DF0050EC9B</title>
    <desc>Created with sketchtool.</desc>
    <g id="Page-2" stroke="none" stroke-width="1" fill="none" fill-rule="evenodd">
        <g id="Internet-2" transform="translate(-508.000000, -280.000000)">
            <g id="Group-3" transform="translate(508.737864, 280.388350)">
                <circle id="Oval" fill="#F4F5F9" fill-rule="nonzero" cx="50.4854369" cy="50.4854369" r="50.4854369"></circle>
                <g id="Group" transform="translate(23.300971, 26.629681)" fill="#5E6EA7">
                    <g id="wifi" transform="translate(0.000000, 7.212205)">
                        <path d="M8.82662968,18.886542 C7.69486824,20.0152528 7.69486824,21.8521745 8.82662968,22.9919511 C9.95839112,24.120662 11.8002774,24.120662 12.9431345,22.9919511 C20.776699,15.1795014 33.5256588,15.1795014 41.3592233,22.9919511 C41.925104,23.5563066 42.668516,23.8440172 43.4119279,23.8440172 C44.1553398,23.8440172 44.8987517,23.5563066 45.4646325,22.9919511 C46.5963939,21.8632403 46.5963939,20.0263186 45.4646325,18.886542 C35.3675451,8.80560467 18.9237171,8.80560467 8.82662968,18.886542 Z" id="Path"></path>
                        <path d="M16.6823856,26.7211233 C15.5506241,27.8498342 15.5506241,29.6867558 16.6823856,30.8265325 C17.814147,31.9552434 19.6560333,31.9552434 20.7988904,30.8265325 C24.2940361,27.3297419 29.9972261,27.3297419 33.4923717,30.8265325 C34.0582524,31.3908879 34.8016644,31.6785985 35.5450763,31.6785985 C36.2884882,31.6785985 37.0319001,31.3908879 37.5977809,30.8265325 C38.7295423,29.6978216 38.7295423,27.8609 37.5977809,26.7321891 C31.8391123,20.966911 22.4521498,20.966911 16.6823856,26.7211233 Z" id="Path"></path>
                        <ellipse id="Oval" cx="27.1456311" cy="37.1451002" rx="3.87239945" ry="3.86196171"></ellipse>
                        <path d="M53.4424411,10.9191711 C38.9403606,-3.53275437 15.3509015,-3.53275437 0.848821082,10.9191711 C-0.282940361,12.047882 -0.282940361,13.8848036 0.848821082,15.0245803 C1.98058252,16.1532911 3.82246879,16.1532911 4.96532594,15.0245803 C17.1927878,2.81901073 37.0984743,2.81901073 49.3370319,15.0245803 C49.9029126,15.5889357 50.6463245,15.8766463 51.3897365,15.8766463 C52.1331484,15.8766463 52.8765603,15.5889357 53.4424411,15.0245803 C54.5742025,13.8958694 54.5742025,12.0589478 53.4424411,10.9191711 Z" id="Path"></path>
                    </g>
                    <path d="M29.0757234,-7.41281673 C27.8502794,-7.41281673 26.8568607,-6.41939806 26.8568607,-5.19395404 L26.8568607,51.9489031 C26.8568607,53.1743471 27.8502794,54.1677658 29.0757234,54.1677658 C30.3011675,54.1677658 31.2945861,53.1743471 31.2945861,51.9489031 L31.2945861,-5.19395404 C31.2945861,-6.41939806 30.3011675,-7.41281673 29.0757234,-7.41281673 Z" id="Rectangle" stroke="#FFFFFF" stroke-width="0.555339806" fill-rule="nonzero" transform="translate(29.075723, 23.377475) rotate(46.000000) translate(-29.075723, -23.377475) "></path>
                </g>
            </g>
        </g>
    </g>
</svg>