<?xml version="1.0" encoding="UTF-8"?>
<svg width="24px" height="38px" viewBox="0 0 24 38" version="1.1" xmlns="http://www.w3.org/2000/svg" xmlns:xlink="http://www.w3.org/1999/xlink">
    <!-- Generator: sketchtool 54.1 (76490) - https://sketchapp.com -->
    <title>227753DE-4A0E-466F-B1F4-A80839C94896</title>
    <desc>Created with sketchtool.</desc>
    <g id="Version-3" stroke="none" stroke-width="1" fill="none" fill-rule="evenodd">
        <g id="QR-2" transform="translate(-400.000000, -232.000000)" fill="#072D4F" fill-rule="nonzero">
            <g id="icons8-shake_phone" transform="translate(411.966453, 251.138418) rotate(9.187261) translate(-411.966453, -251.138418) translate(396.966453, 231.138418)">
                <path d="M21.6383162,0.00597745847 C21.4541522,-0.0031736126 21.2670137,0.00556096516 21.0787457,0.0358623071 L15.9781607,0.854705141 L6.6676135,2.3489436 L6.6676135,2.35193219 L3.22523065,2.90480043 C1.719565,3.14713543 0.667275848,4.6258781 0.904918148,6.16224068 L5.7301135,37.3798744 C5.96768125,38.9157524 7.41440365,39.9891591 8.92054375,39.7467468 L26.7740582,36.8778087 C28.2797252,36.635476 29.3320142,35.1567319 29.0943707,33.6203689 L24.2691767,2.40273626 C24.0613037,1.05884149 22.9274717,0.070035874 21.6383162,0.00597745847 Z M15.4010117,2.31607046 C15.7625117,2.25792665 16.1028017,2.51213844 16.1598017,2.88089262 C16.2168017,3.2496468 15.9705197,3.59676444 15.6090197,3.65490825 C15.2460197,3.71458217 14.9072312,3.46037023 14.8502312,3.09008595 C14.7917312,2.72133192 15.0380117,2.37421427 15.4010117,2.31607046 Z M12.7789412,2.73744571 C13.1404412,2.6793019 13.4807312,2.93351369 13.5377312,3.30226787 C13.5947312,3.67102205 13.3455197,4.01813969 12.9840197,4.0762835 L10.3619492,4.49765875 C10.0004492,4.55580256 9.66016075,4.30457922 9.60316075,3.93582504 C9.54466075,3.56554075 9.79094125,3.21995336 10.1539412,3.1618094 L12.7789412,2.73744571 Z M21.3394877,3.09008595 L26.1002312,33.8863432 L8.65980175,36.6925242 L3.89905885,5.89626609 L7.47620725,5.31949002 L7.71058225,5.49282178 C8.27908225,5.91512932 8.98919125,6.08865234 9.68519125,5.97695501 L15.3834332,5.06248106 C16.0794332,4.95078358 16.7038082,4.56056026 17.1178082,3.98065223 L17.2877312,3.74456249 L21.3394877,3.09008595 Z" id="Shape"></path>
            </g>
        </g>
    </g>
</svg>