<?xml version="1.0" encoding="UTF-8"?>
<svg width="10px" height="15px" viewBox="0 0 10 15" version="1.1" xmlns="http://www.w3.org/2000/svg" xmlns:xlink="http://www.w3.org/1999/xlink">
    <!-- Generator: sketchtool 54.1 (76490) - https://sketchapp.com -->
    <title>6044364C-64D9-4F35-87A1-A29B5969F3CF</title>
    <desc>Created with sketchtool.</desc>
    <g id="New-Version" stroke="none" stroke-width="1" fill="none" fill-rule="evenodd">
        <g id="Login-Options" transform="translate(-576.000000, -759.000000)" fill="#FFFFFF" fill-rule="nonzero">
            <g id="Group-8" transform="translate(503.000000, 730.000000)">
                <g id="Group-4" transform="translate(50.000000, 19.000000)">
                    <g id="icons8-iphone" transform="translate(23.000000, 10.000000)">
                        <path d="M1.875,0 C0.847168125,0 0,0.847168125 0,1.875 L0,13.125 C0,14.1528319 0.847168125,15 1.875,15 L8.125,15 C9.15283188,15 10,14.1528319 10,13.125 L10,1.875 C10,0.847168125 9.15283188,0 8.125,0 L1.875,0 Z M1.875,1.25 L8.125,1.25 C8.47168,1.25 8.75,1.52832062 8.75,1.875 L8.75,13.125 C8.75,13.47168 8.47168,13.75 8.125,13.75 L1.875,13.75 C1.52832063,13.75 1.25,13.47168 1.25,13.125 L1.25,1.875 C1.25,1.52832062 1.52832063,1.25 1.875,1.25 Z M5,11.875 C4.65576187,11.875 4.375,12.1557619 4.375,12.5 C4.375,12.8442381 4.65576187,13.125 5,13.125 C5.34423813,13.125 5.625,12.8442381 5.625,12.5 C5.625,12.1557619 5.34423813,11.875 5,11.875 Z" id="Shape"></path>
                    </g>
                </g>
            </g>
        </g>
    </g>
</svg>