<?xml version="1.0" encoding="UTF-8"?>
<svg width="25px" height="26px" viewBox="0 0 25 26" version="1.1" xmlns="http://www.w3.org/2000/svg" xmlns:xlink="http://www.w3.org/1999/xlink">
    <!-- Generator: sketchtool 54.1 (76490) - https://sketchapp.com -->
    <title>66AB2052-38C1-401F-8ACC-18CA54CEDFE7</title>
    <desc>Created with sketchtool.</desc>
    <g id="Version-4" stroke="none" stroke-width="1" fill="none" fill-rule="evenodd">
        <g id="Showing-private-key" transform="translate(-406.000000, -333.000000)" fill="#000000" fill-rule="nonzero">
            <g id="icons8-key2" transform="translate(406.000000, 333.000000)">
                <path d="M16.625,0.1875 C14.945313,0.1875 13.382813,0.867188 12.09375,2.15625 C10.628906,3.621094 9.960938,5.421875 10.15625,7.34375 C10.304688,8.773438 10.953125,10.210938 12,11.5 L4.75,18.75 L3.4375,17.4375 C2.796875,16.796875 2.265625,17.328125 1.625,17.96875 L1,18.625 C0.359375,19.265625 -0.171875,19.765625 0.46875,20.40625 L1.78125,21.71875 L0.75,22.75 C0.109375,23.390625 0.109375,24.421875 0.75,25.0625 C1.390625,25.703125 2.421875,25.703125 3.0625,25.0625 L14.4375,13.6875 C15.667969,14.460938 17.007813,14.875 18.3125,14.875 C19.988281,14.875 21.554688,14.195313 22.84375,12.90625 C24.308594,11.441406 24.976563,9.644531 24.78125,7.71875 C24.605469,5.988281 23.6875,4.246094 22.21875,2.78125 C20.554688,1.117188 18.574219,0.1875 16.625,0.1875 Z M16.6875,2.25 C18.082031,2.25 19.527344,2.960938 20.78125,4.21875 C21.894531,5.332031 22.589844,6.617188 22.71875,7.875 C22.851563,9.179688 22.394531,10.417969 21.375,11.4375 C20.460938,12.347656 19.398438,12.8125 18.25,12.8125 C16.855469,12.8125 15.410156,12.101563 14.15625,10.84375 C13.042969,9.734375 12.347656,8.445313 12.21875,7.1875 C12.085938,5.882813 12.542969,4.644531 13.5625,3.625 C14.472656,2.714844 15.535156,2.25 16.6875,2.25 Z" id="Shape"></path>
            </g>
        </g>
    </g>
</svg>