<?xml version="1.0" encoding="UTF-8"?>
<svg width="22px" height="22px" viewBox="0 0 22 22" version="1.1" xmlns="http://www.w3.org/2000/svg" xmlns:xlink="http://www.w3.org/1999/xlink">
    <!-- Generator: sketchtool 54.1 (76490) - https://sketchapp.com -->
    <title>B3B0FC27-7004-4DE7-B5C4-F32868586CFB</title>
    <desc>Created with sketchtool.</desc>
    <defs>
        <filter x="-3.1%" y="-3.2%" width="106.2%" height="106.4%" filterUnits="objectBoundingBox" id="filter-1">
            <feMorphology radius="1" operator="erode" in="SourceAlpha" result="shadowSpreadOuter1"></feMorphology>
            <feOffset dx="0" dy="1" in="shadowSpreadOuter1" result="shadowOffsetOuter1"></feOffset>
            <feGaussianBlur stdDeviation="2" in="shadowOffsetOuter1" result="shadowBlurOuter1"></feGaussianBlur>
            <feColorMatrix values="0 0 0 0 0.0274509804   0 0 0 0 0.176470588   0 0 0 0 0.309803922  0 0 0 0.0734544837 0" type="matrix" in="shadowBlurOuter1" result="shadowMatrixOuter1"></feColorMatrix>
            <feMerge>
                <feMergeNode in="shadowMatrixOuter1"></feMergeNode>
                <feMergeNode in="SourceGraphic"></feMergeNode>
            </feMerge>
        </filter>
    </defs>
    <g id="New-Version" stroke="none" stroke-width="1" fill="none" fill-rule="evenodd">
        <g id="Dashboard" transform="translate(-897.000000, -413.000000)" fill="#FFFFFF" fill-rule="nonzero">
            <g id="Account" filter="url(#filter-1)" transform="translate(759.611650, 190.291262)">
                <g id="Group-Copy">
                    <g transform="translate(133.388350, 215.922330)">
                        <path d="M8.77777778,9.78640777 C8.34844444,9.78640777 8,10.1348522 8,10.5641855 L8,13.6752967 C8,14.10463 8.34844444,14.4530744 8.77777778,14.4530744 L11.8888889,14.4530744 C12.3182222,14.4530744 12.6666667,14.10463 12.6666667,13.6752967 L12.6666667,10.5641855 C12.6666667,10.1348522 12.3182222,9.78640777 11.8888889,9.78640777 L8.77777778,9.78640777 Z M14.2222222,9.78640777 L14.2222222,11.3419633 L15.7777778,11.3419633 L15.7777778,9.78640777 L14.2222222,9.78640777 Z M18.1111111,9.78640777 C17.6817778,9.78640777 17.3333333,10.1348522 17.3333333,10.5641855 L17.3333333,13.6752967 C17.3333333,14.10463 17.6817778,14.4530744 18.1111111,14.4530744 L21.2222222,14.4530744 C21.6515556,14.4530744 22,14.10463 22,13.6752967 L22,10.5641855 C22,10.1348522 21.6515556,9.78640777 21.2222222,9.78640777 L18.1111111,9.78640777 Z M9.55555556,11.3419633 L11.1111111,11.3419633 L11.1111111,12.8975189 L9.55555556,12.8975189 L9.55555556,11.3419633 Z M18.8888889,11.3419633 L20.4444444,11.3419633 L20.4444444,12.8975189 L18.8888889,12.8975189 L18.8888889,11.3419633 Z M14.2222222,12.8975189 L14.2222222,14.4530744 L15.7777778,14.4530744 L15.7777778,12.8975189 L14.2222222,12.8975189 Z M8,16.00863 L8,17.5641855 L9.55555556,17.5641855 L9.55555556,16.00863 L8,16.00863 Z M11.1111111,16.00863 L11.1111111,17.5641855 L12.6666667,17.5641855 L12.6666667,16.00863 L11.1111111,16.00863 Z M14.2222222,16.00863 L14.2222222,17.5641855 L15.7777778,17.5641855 L15.7777778,16.00863 L14.2222222,16.00863 Z M15.7777778,17.5641855 L15.7777778,19.1197411 L17.3333333,19.1197411 L17.3333333,17.5641855 L15.7777778,17.5641855 Z M17.3333333,17.5641855 L18.8888889,17.5641855 L18.8888889,16.00863 L17.3333333,16.00863 L17.3333333,17.5641855 Z M18.8888889,17.5641855 L18.8888889,19.1197411 L20.4444444,19.1197411 L20.4444444,17.5641855 L18.8888889,17.5641855 Z M20.4444444,17.5641855 L22,17.5641855 L22,16.00863 L20.4444444,16.00863 L20.4444444,17.5641855 Z M20.4444444,19.1197411 L20.4444444,20.6752967 L22,20.6752967 L22,19.1197411 L20.4444444,19.1197411 Z M20.4444444,20.6752967 L18.8888889,20.6752967 L18.8888889,22.2308522 L20.4444444,22.2308522 L20.4444444,20.6752967 Z M20.4444444,22.2308522 L20.4444444,23.7864078 L22,23.7864078 L22,22.2308522 L20.4444444,22.2308522 Z M18.8888889,22.2308522 L17.3333333,22.2308522 L17.3333333,23.7864078 L18.8888889,23.7864078 L18.8888889,22.2308522 Z M17.3333333,22.2308522 L17.3333333,20.6752967 L15.7777778,20.6752967 L15.7777778,22.2308522 L17.3333333,22.2308522 Z M15.7777778,22.2308522 L14.2222222,22.2308522 L14.2222222,23.7864078 L15.7777778,23.7864078 L15.7777778,22.2308522 Z M15.7777778,20.6752967 L15.7777778,19.1197411 L14.2222222,19.1197411 L14.2222222,20.6752967 L15.7777778,20.6752967 Z M17.3333333,20.6752967 L18.8888889,20.6752967 L18.8888889,19.1197411 L17.3333333,19.1197411 L17.3333333,20.6752967 Z M8.77777778,19.1197411 C8.34844444,19.1197411 8,19.4681855 8,19.8975189 L8,23.00863 C8,23.4379633 8.34844444,23.7864078 8.77777778,23.7864078 L11.8888889,23.7864078 C12.3182222,23.7864078 12.6666667,23.4379633 12.6666667,23.00863 L12.6666667,19.8975189 C12.6666667,19.4681855 12.3182222,19.1197411 11.8888889,19.1197411 L8.77777778,19.1197411 Z M9.55555556,20.6752967 L11.1111111,20.6752967 L11.1111111,22.2308522 L9.55555556,22.2308522 L9.55555556,20.6752967 Z" id="Shape"></path>
                    </g>
                </g>
            </g>
        </g>
    </g>
</svg>