<?xml version="1.0" encoding="UTF-8"?>
<svg width="18px" height="16px" viewBox="0 0 18 16" version="1.1" xmlns="http://www.w3.org/2000/svg" xmlns:xlink="http://www.w3.org/1999/xlink">
    <!-- Generator: sketchtool 54.1 (76490) - https://sketchapp.com -->
    <title>44FCFA0E-CF57-491B-9E4C-3F7CBE35AE8C</title>
    <desc>Created with sketchtool.</desc>
    <g id="New-Version" stroke="none" stroke-width="1" fill="none" fill-rule="evenodd">
        <g id="Login-Options" transform="translate(-578.000000, -422.000000)" fill="#072D4F" fill-rule="nonzero">
            <g id="Group-4-Copy-6" transform="translate(553.000000, 401.000000)">
                <g id="Group-2" transform="translate(18.000000, 12.000000)">
                    <g id="restore" transform="translate(7.000000, 9.000000)">
                        <path d="M10.2857143,0 C6.02570089,0 2.57142857,3.50433424 2.57142857,7.82608696 L0,7.82608696 L3.42855804,11.3043342 L6.85715625,7.82608696 L4.28572768,7.82608696 C4.28572768,4.46523098 6.97287054,1.73914402 10.2857143,1.73914402 C13.598558,1.73914402 16.2857009,4.46523098 16.2857009,7.82608696 C16.2857009,11.1869429 13.598558,13.9130299 10.2857143,13.9130299 C8.98714286,13.9130299 7.79142857,13.4912772 6.80572768,12.7782473 L5.59285714,14.0261005 C6.89572768,15.0434918 8.51998661,15.6521739 10.2857143,15.6521739 C14.5457277,15.6521739 18,12.1478397 18,7.82608696 C18,3.50433424 14.5457277,0 10.2857143,0 Z" id="Path"></path>
                        <path d="M11.7391304,7.82608696 C11.7391304,6.96132333 11.0387134,6.26086957 10.173913,6.26086957 C9.30911273,6.26086957 8.60869565,6.96132333 8.60869565,7.82608696 C8.60869565,8.69085058 9.30911273,9.39130435 10.173913,9.39130435 C11.0387134,9.39130435 11.7391304,8.69085058 11.7391304,7.82608696 Z" id="Path"></path>
                    </g>
                </g>
            </g>
        </g>
    </g>
</svg>