<?xml version="1.0" encoding="UTF-8"?>
<svg width="17px" height="14px" viewBox="0 0 17 14" version="1.1" xmlns="http://www.w3.org/2000/svg" xmlns:xlink="http://www.w3.org/1999/xlink">
    <!-- Generator: sketchtool 54.1 (76490) - https://sketchapp.com -->
    <title>6092DB8C-3502-49A0-9C8D-641EB0A83779</title>
    <desc>Created with sketchtool.</desc>
    <g id="New-Version" stroke="none" stroke-width="1" fill="none" fill-rule="evenodd">
        <g id="Open-wallet" transform="translate(-413.000000, -759.000000)" fill="#03A9F4" fill-rule="nonzero">
            <g id="Left-Side">
                <g id="twitter" transform="translate(413.000000, 759.000000)">
                    <path d="M17,1.65738462 C16.3678125,1.93846154 15.6941875,2.12476923 14.991875,2.21523077 C15.714375,1.778 16.2658125,1.09092308 16.5250625,0.262769231 C15.8514375,0.669846154 15.1076875,0.957384615 14.3150625,1.11784615 C13.6754375,0.427538462 12.7638125,0 11.7693125,0 C9.8398125,0 8.2864375,1.58738462 8.2864375,3.53338462 C8.2864375,3.81338462 8.3098125,4.08261538 8.3671875,4.33892308 C5.46975,4.19569231 2.9059375,2.78815385 1.183625,0.644 C0.8829375,1.17276923 0.7065625,1.778 0.7065625,2.42953846 C0.7065625,3.65292308 1.328125,4.73738462 2.254625,5.36523077 C1.6946875,5.35446154 1.145375,5.18969231 0.68,4.93015385 C0.68,4.94092308 0.68,4.95492308 0.68,4.96892308 C0.68,6.68553846 1.8880625,8.11138462 3.47225,8.43984615 C3.1885625,8.51846154 2.879375,8.55615385 2.5585,8.55615385 C2.335375,8.55615385 2.110125,8.54323077 1.8986875,8.49584615 C2.35025,9.89476923 3.631625,10.9232308 5.15525,10.9566154 C3.9695,11.8967692 2.4639375,12.4632308 0.8340625,12.4632308 C0.54825,12.4632308 0.274125,12.4503077 0,12.4147692 C1.5438125,13.4238462 3.3734375,14 5.3465,14 C11.75975,14 15.266,8.61538462 15.266,3.948 C15.266,3.79184615 15.2606875,3.64107692 15.25325,3.49138462 C15.9449375,2.99384615 16.526125,2.37246154 17,1.65738462 Z" id="Path"></path>
                </g>
            </g>
        </g>
    </g>
</svg>