<?xml version="1.0" encoding="UTF-8"?>
<svg width="43px" height="43px" viewBox="0 0 43 43" version="1.1" xmlns="http://www.w3.org/2000/svg" xmlns:xlink="http://www.w3.org/1999/xlink">
    <!-- Generator: sketchtool 52.3 (67297) - http://www.bohemiancoding.com/sketch -->
    <title>80AEFA50-9E29-47BC-9D69-E44D29A8B4C7</title>
    <desc>Created with sketchtool.</desc>
    <g id="Page-1" stroke="none" stroke-width="1" fill="none" fill-rule="evenodd">
        <g id="Download-window" transform="translate(-699.000000, -192.000000)" fill="#5E6EA7" fill-rule="nonzero">
            <g id="icons8-wallet_copy_2" transform="translate(699.000000, 192.000000)">
                <path d="M33.6379167,0.000359061384 C33.36776,0.00728564295 33.08375,0.0419220974 32.8066667,0.11119146 L3.99,7.70321074 C1.6625,8.31278893 0,10.4463126 0,12.8569173 L0,37.2400449 C0,40.1563219 2.40369836,42.56 5.32,42.56 L37.24,42.56 C40.1563016,42.56 42.56,40.1563219 42.56,37.2400449 L42.56,14.186906 C42.56,11.270629 40.1563016,8.86695092 37.24,8.86695092 L13.5216667,8.86695092 L33.6933333,3.54699581 L33.6933333,7.09363255 L37.24,7.09363255 L37.24,3.54699581 C37.24,1.55201264 35.542865,-0.0273490382 33.6379167,0.000359061384 Z M5.32,12.4135877 L37.24,12.4135877 C38.2444266,12.4135877 39.0133333,13.1824879 39.0133333,14.186906 L39.0133333,37.2400449 C39.0133333,38.244463 38.2444266,39.0133633 37.24,39.0133633 L5.32,39.0133633 C4.31557336,39.0133633 3.54666667,38.244463 3.54666667,37.2400449 L3.54666667,14.186906 C3.54666667,13.1824879 4.31557336,12.4135877 5.32,12.4135877 Z M32.8066667,23.0534979 C31.338125,23.0534979 30.1466667,24.2449462 30.1466667,25.7134755 C30.1466667,27.1820047 31.338125,28.373453 32.8066667,28.373453 C34.2752083,28.373453 35.4666667,27.1820047 35.4666667,25.7134755 C35.4666667,24.2449462 34.2752083,23.0534979 32.8066667,23.0534979 Z" id="Shape"></path>
            </g>
        </g>
    </g>
</svg>